<svg xmlns="http://www.w3.org/2000/svg" viewBox="0 0 1920 900" width="1920" height="900">
  <defs>
    <linearGradient id="base" gradientUnits="userSpaceOnUse" x1="0" y1="0" x2="1920" y2="900">
      <stop offset="0%"   stop-color="#103040"/>
      <stop offset="55%"  stop-color="#1A4258"/>
      <stop offset="100%" stop-color="#204A62"/>
    </linearGradient>
    <radialGradient id="vig" gradientUnits="userSpaceOnUse" cx="960" cy="450" r="1050">
      <stop offset="0%"   stop-color="transparent"/>
      <stop offset="70%"  stop-color="#103040" stop-opacity="0.22"/>
      <stop offset="100%" stop-color="#103040" stop-opacity="0.55"/>
    </radialGradient>
    <filter id="b1"><feGaussianBlur stdDeviation="95"/></filter>
    <filter id="b2"><feGaussianBlur stdDeviation="140"/></filter>
  </defs>

  <rect width="1920" height="900" fill="url(#base)"/>

  <circle cx="450"  cy="250"  r="450" fill="#207890" opacity="0.55" filter="url(#b2)"/>
  <circle cx="1480" cy="650"  r="400" fill="#3080A0" opacity="0.45" filter="url(#b2)"/>
  <circle cx="980"  cy="90"   r="330" fill="#1870A0" opacity="0.40" filter="url(#b1)"/>
  <circle cx="240"  cy="720"  r="270" fill="#B09060" opacity="0.25" filter="url(#b1)"/>
  <circle cx="1700" cy="160"  r="290" fill="#186080" opacity="0.38" filter="url(#b1)"/>

  <path d="M 0 680 Q 480 640 960 680 Q 1440 720 1920 680 L 1920 900 L 0 900 Z"
        fill="#103040" opacity="0.28"/>
  <path d="M 0 730 Q 480 700 960 730 Q 1440 760 1920 730 L 1920 900 L 0 900 Z"
        fill="#0C2030" opacity="0.35"/>

  <line x1="0" y1="320" x2="1920" y2="320" stroke="#60B0D0" stroke-width="0.5" opacity="0.12"/>

  <rect width="1920" height="900" fill="url(#vig)"/>
</svg>
