<svg xmlns="http://www.w3.org/2000/svg" viewBox="0 0 400 500">
  <!-- Retrato 1 — Mulher, pele morena, cabelo longo escuro -->

  <!-- Cabelo traseiro (atrás do rosto) -->
  <ellipse cx="112" cy="305" rx="36" ry="145" fill="#1A0900"/>
  <ellipse cx="288" cy="305" rx="36" ry="145" fill="#1A0900"/>
  <ellipse cx="200" cy="375" rx="92" ry="55" fill="#1A0900"/>

  <!-- Corpo / roupa -->
  <rect x="0" y="395" width="400" height="160" fill="#1E3A38"/>
  <ellipse cx="200" cy="395" rx="200" ry="40" fill="#1E3A38"/>
  <!-- Gola em V -->
  <path d="M 152 395 L 200 450 L 248 395" fill="#162E2C"/>

  <!-- Pescoço -->
  <rect x="180" y="315" width="40" height="88" rx="9" fill="#C08868"/>

  <!-- Orelhas -->
  <ellipse cx="124" cy="252" rx="15" ry="19" fill="#B07858"/>
  <ellipse cx="276" cy="252" rx="15" ry="19" fill="#B07858"/>

  <!-- Rosto -->
  <ellipse cx="200" cy="238" rx="80" ry="96" fill="#C08868"/>

  <!-- Sombra suave queixo -->
  <ellipse cx="200" cy="325" rx="48" ry="11" fill="#9A6848" opacity="0.25"/>

  <!-- Cabelo frente / topo -->
  <ellipse cx="200" cy="152" rx="84" ry="78" fill="#1A0900"/>

  <!-- Sobrancelhas -->
  <path d="M 153 213 Q 170 205 188 211" stroke="#1A0900" stroke-width="3.0" fill="none" stroke-linecap="round"/>
  <path d="M 212 211 Q 230 205 247 213" stroke="#1A0900" stroke-width="3.0" fill="none" stroke-linecap="round"/>

  <!-- Olhos brancos -->
  <ellipse cx="170" cy="234" rx="14.5" ry="10" fill="#F8F2EC"/>
  <ellipse cx="230" cy="234" rx="14.5" ry="10" fill="#F8F2EC"/>

  <!-- Íris -->
  <circle cx="170" cy="235" r="7" fill="#2E1808"/>
  <circle cx="230" cy="235" r="7" fill="#2E1808"/>

  <!-- Brilho olho -->
  <circle cx="173" cy="232" r="2.5" fill="white" opacity="0.78"/>
  <circle cx="233" cy="232" r="2.5" fill="white" opacity="0.78"/>

  <!-- Cílios superiores (simples) -->
  <path d="M 156 224 Q 170 220 184 224" stroke="#1A0900" stroke-width="1.8" fill="none" stroke-linecap="round"/>
  <path d="M 216 224 Q 230 220 244 224" stroke="#1A0900" stroke-width="1.8" fill="none" stroke-linecap="round"/>

  <!-- Nariz -->
  <path d="M 196 258 Q 191 271 200 274 Q 209 271 204 258" stroke="#9A6040" stroke-width="1.4" fill="none" opacity="0.60"/>
  <ellipse cx="192" cy="272" rx="5" ry="3.5" fill="#9A6040" opacity="0.22"/>
  <ellipse cx="208" cy="272" rx="5" ry="3.5" fill="#9A6040" opacity="0.22"/>

  <!-- Lábios -->
  <path d="M 182 296 Q 191 290 200 292 Q 209 290 218 296" stroke="#9A5838" stroke-width="1.6" fill="none"/>
  <path d="M 182 296 Q 200 310 218 296" fill="#C07862" opacity="0.88"/>
  <path d="M 182 296 Q 200 310 218 296" stroke="#9A5838" stroke-width="1.0" fill="none"/>

  <!-- Canalinho do filtro nasal (sutil) -->
  <path d="M 200 274 L 200 292" stroke="#A06848" stroke-width="1.0" fill="none" opacity="0.30"/>
</svg>
